<svg width="15" height="16" viewBox="0 0 15 16" fill="none" xmlns="http://www.w3.org/2000/svg">
<g clip-path="url(#clip0_7_130)">
<path d="M10.1365 1.93204L5.25962 6.8423C3.21894 8.90213 1.67356 11.4049 0.74186 14.1589C0.697428 14.2892 0.690352 14.4294 0.721442 14.5635C0.752532 14.6977 0.82053 14.8202 0.917641 14.9172L0.92019 14.9198C0.987768 14.9884 1.06814 15.0428 1.15669 15.08C1.24523 15.1171 1.3402 15.1363 1.43614 15.1364C1.51686 15.1363 1.59703 15.1229 1.67344 15.0967C4.40871 14.1587 6.89445 12.6027 8.94024 10.548L13.8169 5.63776C14.305 5.14635 14.5792 4.47986 14.5792 3.78491C14.5792 3.08996 14.305 2.42346 13.8169 1.93206C13.5753 1.68874 13.2884 1.49572 12.9726 1.36404C12.6569 1.23235 12.3185 1.16458 11.9767 1.16457C11.2865 1.16457 10.6245 1.44064 10.1365 1.93204V1.93204ZM8.27719 9.88054C6.43392 11.7316 4.21382 13.1581 1.77 14.0616C2.66734 11.601 4.08408 9.36566 5.92252 7.50974L8.82765 4.58472L11.1823 6.95551L8.27719 9.88054ZM13.154 4.97031L11.8452 6.28806L9.49055 3.91727L10.7994 2.59949C10.9539 2.44345 11.1375 2.31961 11.3396 2.23506C11.5417 2.15052 11.7583 2.10692 11.9772 2.10676C12.1961 2.1066 12.4128 2.14988 12.615 2.23414C12.8172 2.31839 13.001 2.44196 13.1557 2.59778C13.3105 2.75359 13.4332 2.9386 13.5169 3.14221C13.6006 3.34582 13.6436 3.56405 13.6434 3.7844C13.6432 4.00476 13.5999 4.22292 13.516 4.42641C13.432 4.6299 13.309 4.81472 13.154 4.97031Z" fill="white"/>
</g>
<defs>
<clipPath id="clip0_7_130">
<rect width="15" height="15.1029" fill="white" transform="translate(0 0.692574)"/>
</clipPath>
</defs>
</svg>
