<svg width="15" height="19" viewBox="0 0 15 19" fill="none" xmlns="http://www.w3.org/2000/svg">
<path d="M5.21875 3.95913V2.25892C5.21875 2.10872 5.26814 1.96466 5.35604 1.85845C5.44395 1.75224 5.56318 1.69257 5.6875 1.69257H9.4375C9.56182 1.69257 9.68105 1.75224 9.76896 1.85845C9.85686 1.96466 9.90625 2.10872 9.90625 2.25892V3.95913H13.6562C13.7806 3.95913 13.8998 4.0188 13.9877 4.12501C14.0756 4.23122 14.125 4.37528 14.125 4.52549C14.125 4.67569 14.0756 4.81975 13.9877 4.92596C13.8998 5.03217 13.7806 5.09184 13.6562 5.09184H1.46875C1.34443 5.09184 1.2252 5.03217 1.13729 4.92596C1.04939 4.81975 1 4.67569 1 4.52549C1 4.37528 1.04939 4.23122 1.13729 4.12501C1.2252 4.0188 1.34443 3.95913 1.46875 3.95913H5.21875ZM6.15625 3.95913H8.96875V2.82641H6.15625V3.95913ZM2.875 17.5517C2.75068 17.5517 2.63145 17.492 2.54354 17.3858C2.45564 17.2796 2.40625 17.1356 2.40625 16.9853V5.09184H12.7188V16.9853C12.7188 17.1356 12.6694 17.2796 12.5815 17.3858C12.4935 17.492 12.3743 17.5517 12.25 17.5517H2.875ZM6.15625 14.1536C6.28057 14.1536 6.3998 14.0939 6.48771 13.9877C6.57561 13.8815 6.625 13.7374 6.625 13.5872V7.92363C6.625 7.77342 6.57561 7.62937 6.48771 7.52316C6.3998 7.41694 6.28057 7.35727 6.15625 7.35727C6.03193 7.35727 5.9127 7.41694 5.82479 7.52316C5.73689 7.62937 5.6875 7.77342 5.6875 7.92363V13.5872C5.6875 13.7374 5.73689 13.8815 5.82479 13.9877C5.9127 14.0939 6.03193 14.1536 6.15625 14.1536ZM8.96875 14.1536C9.09307 14.1536 9.2123 14.0939 9.30021 13.9877C9.38811 13.8815 9.4375 13.7374 9.4375 13.5872V7.92363C9.4375 7.77342 9.38811 7.62937 9.30021 7.52316C9.2123 7.41694 9.09307 7.35727 8.96875 7.35727C8.84443 7.35727 8.7252 7.41694 8.63729 7.52316C8.54939 7.62937 8.5 7.77342 8.5 7.92363V13.5872C8.5 13.7374 8.54939 13.8815 8.63729 13.9877C8.7252 14.0939 8.84443 14.1536 8.96875 14.1536Z" fill="white"/>
</svg>
